<?xml version="1.0" encoding="UTF-8"?>
<svg width="752pt" height="752pt" version="1.1" viewBox="0 0 752 752" xmlns="http://www.w3.org/2000/svg">
 <g fill="#3b6af9">
  <path d="m373.04 517.11c-7.1836 0-13.008 5.8203-13.008 13.008 0 7.1836 5.8242 13.004 13.008 13.004h203.05c7.1836 0 13.008-5.8203 13.008-13.004 0-7.1875-5.8242-13.008-13.008-13.008z"/>
  <path d="m454.35 234.85c3.4492 0.003907 6.7578-1.3594 9.1992-3.7969s3.8125-5.7422 3.8125-9.1914-1.3711-6.7578-3.8125-9.1914c-2.4414-2.4375-5.75-3.8008-9.1992-3.7969h-81.328c-7.1641 0.015625-12.965 5.8242-12.965 12.988 0 7.1641 5.8008 12.973 12.965 12.988z"/>
  <path d="m373.04 312.86h112.1c3.4531 0.003906 6.7656-1.3633 9.2109-3.8008 2.4453-2.4414 3.8203-5.7539 3.8203-9.207 0-3.457-1.375-6.7695-3.8203-9.207-2.4453-2.4414-5.7578-3.8086-9.2109-3.8008h-112.1c-7.1758 0.011718-12.984 5.832-12.984 13.008 0 7.1719 5.8086 12.992 12.984 13.008z"/>
  <path d="m515.96 364.84h-142.92c-7.1719 0.011719-12.98 5.832-12.98 13.008 0 7.1719 5.8086 12.992 12.98 13.008h142.92c7.1758-0.015625 12.984-5.8359 12.984-13.008 0-7.1758-5.8086-12.996-12.984-13.008z"/>
  <path d="m360.03 455.86c0 7.1836 5.8242 13.008 13.008 13.008h173.71c7.1719-0.015625 12.98-5.832 12.98-13.008s-5.8086-12.996-12.98-13.008h-173.71c-7.1836 0-13.008 5.8242-13.008 13.008z"/>
  <path d="m185.06 292.77 39.555-39.555v276.92c0 7.1797 5.8203 12.996 13 12.996 7.1797 0 13-5.8164 13-12.996v-276.88l39.527 39.527c5.0781 5.0664 13.301 5.0586 18.371-0.011719 5.0742-5.0742 5.0742-13.297 0.007812-18.375l-61.574-61.547c-0.66406-0.6875-1.4023-1.3008-2.2031-1.8281-0.70313-0.46094-1.4453-0.85156-2.2188-1.168-0.21484-0.085937-0.4375-0.12891-0.65234-0.20312h-0.003906c-0.56641-0.21484-1.1484-0.38672-1.7422-0.51562-0.63672-0.11328-1.2852-0.17969-1.9336-0.19531-0.19141-0.007813-0.37109-0.058594-0.56641-0.058594-0.86328 0-1.7266 0.085938-2.5742 0.25781-0.35156 0.070313-0.67578 0.20313-1.0156 0.30078-0.47656 0.12109-0.94922 0.26562-1.4102 0.4375-0.38281 0.16016-0.73047 0.38281-1.0977 0.57812-0.39062 0.1875-0.76953 0.39453-1.1406 0.62109-0.55859 0.38672-1.0859 0.81641-1.5781 1.2852-0.125 0.11719-0.27344 0.19922-0.39453 0.32422l-61.719 61.719c-5.0625 5.0742-5.0547 13.289 0.011719 18.355 5.0664 5.0664 13.277 5.0703 18.352 0.011719z"/>
 </g>
</svg>
