<?xml version="1.0" encoding="UTF-8"?>
<svg width="752pt" height="752pt" version="1.1" viewBox="0 0 752 752" xmlns="http://www.w3.org/2000/svg">
 <path d="m213.56 538.44c7.5781 8.9961 19.891 13.262 30.781 13.262s21.785-4.2617 30.781-13.262l100.88-100.88 100.87 100.87c8.9961 8.9961 19.891 13.262 30.781 13.262s21.785-4.2617 30.781-13.262c17.523-17.523 17.523-44.988 0-62.512l-99.918-99.449 100.87-100.87c17.523-17.523 17.523-44.988 0-62.512-17.523-17.523-44.988-17.523-62.512 0l-100.88 100.87-100.87-100.87c-17.523-17.523-44.988-17.523-62.512 0-17.523 17.523-17.523 44.988 0 62.512l100.87 100.87-100.87 100.88c-16.578 17.523-16.578 44.992 0.94531 61.094z" fill="#1e2804"/>
</svg>
