<?xml version="1.0" encoding="UTF-8"?>
<svg width="752pt" height="752pt" version="1.1" viewBox="0 0 752 752" xmlns="http://www.w3.org/2000/svg">
 <path d="m494.4 539.64v-351.1c0-5.4492 4.4141-9.8672 9.8633-9.8672s9.8672 4.418 9.8672 9.8672v351.1l42.355-42.355c3.8516-3.8516 10.102-3.8516 13.953 0 3.8516 3.8555 3.8516 10.102 0 13.953l-59.199 59.199c-3.8516 3.8516-10.098 3.8516-13.953 0l-59.195-59.199c-3.8555-3.8516-3.8555-10.098 0-13.953 3.8516-3.8516 10.098-3.8516 13.953 0zm-305.86-321.5c-5.4492 0-9.8672-4.418-9.8672-9.8672 0-5.4492 4.418-9.8633 9.8672-9.8633h236.79c5.4492 0 9.8672 4.4141 9.8672 9.8633 0 5.4492-4.418 9.8672-9.8672 9.8672zm39.465 59.199c-5.4492 0-9.8672-4.418-9.8672-9.8672 0-5.4492 4.418-9.8672 9.8672-9.8672h197.32c5.4492 0 9.8672 4.418 9.8672 9.8672 0 5.4492-4.418 9.8672-9.8672 9.8672zm39.465 59.195c-5.4492 0-9.8672-4.418-9.8672-9.8633 0-5.4492 4.418-9.8672 9.8672-9.8672h157.86c5.4492 0 9.8672 4.418 9.8672 9.8672 0 5.4453-4.418 9.8633-9.8672 9.8633zm39.465 59.199c-5.4492 0-9.8672-4.418-9.8672-9.8672 0-5.4492 4.418-9.8672 9.8672-9.8672h118.39c5.4492 0 9.8672 4.418 9.8672 9.8672 0 5.4492-4.418 9.8672-9.8672 9.8672zm39.465 59.195c-5.4492 0-9.8672-4.4141-9.8672-9.8633 0-5.4492 4.418-9.8672 9.8672-9.8672h78.93c5.4492 0 9.8672 4.418 9.8672 9.8672 0 5.4492-4.418 9.8633-9.8672 9.8633z" fill="#3b6af9"/>
</svg>
